<svg width="24" height="31" viewBox="0 0 24 31" fill="none" xmlns="http://www.w3.org/2000/svg">
<g clip-path="url(#clip0_14447_69949)">
<path d="M20.0441 16.2431C20.0855 20.7036 23.9571 22.188 24 22.2069C23.9673 22.3116 23.3814 24.3223 21.9602 26.3991C20.7317 28.1947 19.4567 29.9836 17.4482 30.0207C15.4746 30.0571 14.8399 28.8503 12.5836 28.8503C10.3279 28.8503 9.62277 29.9836 7.75454 30.0571C5.81578 30.1304 4.33944 28.1154 3.10073 26.3264C0.569559 22.667 -1.36478 15.9858 1.23255 11.4759C2.52284 9.23626 4.8287 7.81802 7.3315 7.78165C9.2353 7.74534 11.0323 9.06247 12.1961 9.06247C13.3592 9.06247 15.5429 7.4785 17.8385 7.71113C18.7996 7.75113 21.4972 8.09933 23.2294 10.6349C23.0899 10.7214 20.0106 12.514 20.0441 16.2431V16.2431ZM16.3349 5.29011C17.3642 4.04419 18.057 2.30974 17.868 0.583984C16.3843 0.643614 14.5903 1.57265 13.5261 2.81789C12.5724 3.92061 11.7371 5.68558 11.9625 7.37718C13.6162 7.50513 15.3056 6.53683 16.3349 5.29011" fill="white"/>
</g>
<defs>
<clipPath id="clip0_14447_69949">
<rect width="24" height="29.5312" fill="white" transform="translate(0 0.583984)"/>
</clipPath>
</defs>
</svg>
