<svg width="18" height="19" viewBox="0 0 18 19" fill="none" xmlns="http://www.w3.org/2000/svg">
<g clip-path="url(#clip0_15467_8829)">
<path d="M12.75 1.84961H5.24999C3.17892 1.84961 1.49999 3.52854 1.49999 5.59961V13.0996C1.49999 15.1707 3.17892 16.8496 5.24999 16.8496H12.75C14.8211 16.8496 16.5 15.1707 16.5 13.0996V5.59961C16.5 3.52854 14.8211 1.84961 12.75 1.84961Z" stroke="#420F69" stroke-width="2" stroke-linecap="round" stroke-linejoin="round"/>
<path d="M11.9988 8.87831C12.0914 9.5025 11.9847 10.14 11.6941 10.7001C11.4035 11.2602 10.9437 11.7144 10.38 11.9981C9.81638 12.2818 9.17764 12.3805 8.55464 12.2803C7.93165 12.18 7.35612 11.8859 6.90993 11.4397C6.46374 10.9935 6.1696 10.418 6.06935 9.79497C5.96911 9.17198 6.06785 8.53323 6.35155 7.96959C6.63524 7.40595 7.08944 6.94612 7.64954 6.65549C8.20964 6.36487 8.84712 6.25825 9.4713 6.35081C10.108 6.44523 10.6974 6.74191 11.1526 7.19704C11.6077 7.65217 11.9044 8.24162 11.9988 8.87831Z" stroke="#420F69" stroke-width="2" stroke-linecap="round" stroke-linejoin="round"/>
<ellipse cx="13.125" cy="5.22461" rx="1.125" ry="1.125" fill="#420F69"/>
</g>
<defs>
<clipPath id="clip0_15467_8829">
<rect width="18" height="18" fill="white" transform="translate(0 0.349609)"/>
</clipPath>
</defs>
</svg>
