<svg width="14" height="14" viewBox="0 0 14 14" fill="none" xmlns="http://www.w3.org/2000/svg">
<path fill-rule="evenodd" clip-rule="evenodd" d="M1.78251 0.349609C0.808279 0.349609 0.170898 0.989114 0.170898 1.82933C0.170898 2.6517 0.789801 3.30968 1.74513 3.30968H1.76361C2.75695 3.30968 3.37458 2.6517 3.37458 1.82933C3.35568 0.989114 2.75695 0.349609 1.78251 0.349609ZM13.4554 8.13198V13.0441H10.6075V8.46118C10.6075 7.31046 10.1963 6.52462 9.16516 6.52462C8.37826 6.52462 7.91079 7.05368 7.70435 7.56596C7.62938 7.74904 7.61005 8.00327 7.61005 8.26005V13.0439H4.76191C4.76191 13.0439 4.80014 5.28193 4.76191 4.47846H7.61026V5.69226C7.60757 5.69675 7.60437 5.70118 7.6012 5.70557C7.59761 5.71054 7.59407 5.71545 7.59136 5.7203H7.61026V5.69226C7.98874 5.10989 8.66371 4.27733 10.177 4.27733C12.0507 4.27733 13.4554 5.50154 13.4554 8.13198ZM3.18725 13.0441H0.340173V4.47846H3.18725V13.0441Z" fill="#420F69"/>
</svg>
