<svg width="24" height="25" viewBox="0 0 24 25" fill="none" xmlns="http://www.w3.org/2000/svg">
<path fill-rule="evenodd" clip-rule="evenodd" d="M2 11.519C2 6.73078 5.84034 2.84912 10.5776 2.84912C12.8526 2.84912 15.0343 3.76256 16.6429 5.38848C18.2516 7.01441 19.1553 9.21964 19.1553 11.519C19.1553 16.3073 15.3149 20.189 10.5776 20.189C5.84034 20.189 2 16.3073 2 11.519ZM19.0134 18.5034L21.568 20.5655H21.6124C22.1292 21.0879 22.1292 21.9349 21.6124 22.4573C21.0955 22.9797 20.2576 22.9797 19.7407 22.4573L17.6207 20.0276C17.4203 19.8257 17.3076 19.5515 17.3076 19.2655C17.3076 18.9795 17.4203 18.7053 17.6207 18.5034C18.0072 18.1195 18.6268 18.1195 19.0134 18.5034Z" fill="#9EA0AB"/>
</svg>
