<svg width="15" height="13" viewBox="0 0 15 13" fill="none" xmlns="http://www.w3.org/2000/svg">
<path d="M14.2857 1.69895C13.75 1.96882 13.2143 2.05878 12.5893 2.14874C13.2143 1.78891 13.6607 1.24917 13.8393 0.529522C13.3036 0.889347 12.6786 1.06926 11.9643 1.24917C11.4286 0.709435 10.625 0.349609 9.82143 0.349609C8.30357 0.349609 6.96429 1.69895 6.96429 3.31817C6.96429 3.58804 6.96429 3.76795 7.05357 3.94786C4.64286 3.85791 2.41071 2.68847 0.982143 0.889347C0.714286 1.33913 0.625 1.78891 0.625 2.41861C0.625 3.40812 1.16071 4.30769 1.96429 4.84743C1.51786 4.84743 1.07143 4.66751 0.625 4.4876C0.625 5.9269 1.60714 7.09633 2.94643 7.3662C2.67857 7.45616 2.41071 7.45616 2.14286 7.45616C1.96429 7.45616 1.78571 7.45616 1.60714 7.3662C1.96429 8.53564 3.03571 9.4352 4.375 9.4352C3.39286 10.2448 2.14286 10.6946 0.714286 10.6946C0.446429 10.6946 0.267857 10.6946 0 10.6946C1.33929 11.5042 2.85714 12.0439 4.46429 12.0439C9.82143 12.0439 12.7679 7.54612 12.7679 3.67799C12.7679 3.58804 12.7679 3.40812 12.7679 3.31817C13.3929 2.86839 13.9286 2.32865 14.2857 1.69895Z" fill="#420F69"/>
</svg>
