<svg width="45" height="51" viewBox="0 0 45 51" fill="none" xmlns="http://www.w3.org/2000/svg">
<circle cx="21.6484" cy="28.6621" r="21.5" fill="#521282"/>
<mask id="path-2-outside-1_14447_69904" maskUnits="userSpaceOnUse" x="13.2586" y="-3.25286" width="34.564" height="38.0812" fill="black">
<rect fill="white" x="13.2586" y="-3.25286" width="34.564" height="38.0812"/>
<path fill-rule="evenodd" clip-rule="evenodd" d="M38.6295 4.35943C40.2578 9.04192 39.3628 14.9263 35.8007 19.8187C32.2386 24.7111 26.9135 27.37 21.9572 27.2583C20.3289 22.5758 21.2239 16.6915 24.786 11.799C28.348 6.90661 33.6732 4.24776 38.6295 4.35943Z"/>
</mask>
<path fill-rule="evenodd" clip-rule="evenodd" d="M38.6295 4.35943C40.2578 9.04192 39.3628 14.9263 35.8007 19.8187C32.2386 24.7111 26.9135 27.37 21.9572 27.2583C20.3289 22.5758 21.2239 16.6915 24.786 11.799C28.348 6.90661 33.6732 4.24776 38.6295 4.35943Z" fill="#3DC5A1"/>
<path d="M38.6295 4.35943L40.5185 3.70251L40.0625 2.39121L38.6745 2.35994L38.6295 4.35943ZM21.9572 27.2583L20.0682 27.9152L20.5242 29.2265L21.9122 29.2578L21.9572 27.2583ZM36.7404 5.01635C38.129 9.00935 37.4063 14.2156 34.1839 18.6415L37.4176 20.9959C41.3193 15.6369 42.3866 9.07448 40.5185 3.70251L36.7404 5.01635ZM34.1839 18.6415C30.9615 23.0674 26.2287 25.354 22.0023 25.2588L21.9122 29.2578C27.5983 29.3859 33.5158 26.3549 37.4176 20.9959L34.1839 18.6415ZM23.8463 26.6014C22.4577 22.6084 23.1804 17.4021 26.4028 12.9762L23.1691 10.6218C19.2673 15.9808 18.2001 22.5432 20.0682 27.9152L23.8463 26.6014ZM26.4028 12.9762C29.6252 8.55036 34.3579 6.2637 38.5844 6.35892L38.6745 2.35994C32.9884 2.23183 27.0709 5.26287 23.1691 10.6218L26.4028 12.9762Z" fill="#F5F6FA" mask="url(#path-2-outside-1_14447_69904)"/>
</svg>
