<svg width="38" height="15" viewBox="0 0 38 15" fill="none" xmlns="http://www.w3.org/2000/svg">
<rect y="0.349121" width="38" height="14.1569" rx="3.72549" fill="#3DC5A1"/>
<path d="M7.18066 8.30359H7.62598C7.60278 8.51697 7.54171 8.70793 7.44275 8.87646C7.34379 9.045 7.20386 9.17875 7.02295 9.27771C6.84204 9.37512 6.61629 9.42383 6.3457 9.42383C6.14779 9.42383 5.96765 9.38672 5.8053 9.3125C5.64449 9.23828 5.5061 9.13314 5.39014 8.99707C5.27417 8.85946 5.18449 8.69478 5.12109 8.50305C5.05924 8.30977 5.02832 8.09485 5.02832 7.85828V7.52197C5.02832 7.2854 5.05924 7.07125 5.12109 6.87952C5.18449 6.68624 5.27494 6.52079 5.39246 6.38318C5.51152 6.24556 5.65454 6.13965 5.82153 6.06543C5.98853 5.99121 6.17639 5.9541 6.38513 5.9541C6.64026 5.9541 6.85596 6.00203 7.03223 6.0979C7.2085 6.19377 7.34534 6.32674 7.44275 6.49683C7.54171 6.66536 7.60278 6.86096 7.62598 7.08362H7.18066C7.15902 6.9259 7.11882 6.79061 7.06006 6.67773C7.0013 6.56331 6.91781 6.47518 6.80957 6.41333C6.70133 6.35148 6.55986 6.32056 6.38513 6.32056C6.23515 6.32056 6.10295 6.34916 5.98853 6.40637C5.87565 6.46358 5.78056 6.54476 5.70325 6.6499C5.62748 6.75505 5.57027 6.88106 5.53162 7.02795C5.49296 7.17485 5.47363 7.33797 5.47363 7.51733V7.85828C5.47363 8.02372 5.49064 8.17912 5.52466 8.32446C5.56022 8.46981 5.61357 8.59737 5.68469 8.70715C5.75582 8.81694 5.84627 8.90352 5.95605 8.96692C6.06584 9.02877 6.19572 9.05969 6.3457 9.05969C6.53589 9.05969 6.68742 9.02954 6.80029 8.96924C6.91317 8.90894 6.99821 8.82235 7.05542 8.70947C7.11418 8.5966 7.15592 8.4613 7.18066 8.30359ZM8.15237 8.15051V8.09717C8.15237 7.91626 8.17866 7.74849 8.23123 7.59387C8.2838 7.4377 8.35957 7.30241 8.45853 7.18799C8.55748 7.07202 8.67732 6.98234 8.81802 6.91895C8.95873 6.854 9.11644 6.82153 9.29117 6.82153C9.46744 6.82153 9.62592 6.854 9.76663 6.91895C9.90888 6.98234 10.0295 7.07202 10.1284 7.18799C10.229 7.30241 10.3055 7.4377 10.3581 7.59387C10.4106 7.74849 10.4369 7.91626 10.4369 8.09717V8.15051C10.4369 8.33142 10.4106 8.49919 10.3581 8.65381C10.3055 8.80843 10.229 8.94373 10.1284 9.05969C10.0295 9.17411 9.90966 9.26379 9.76895 9.32874C9.62979 9.39213 9.47208 9.42383 9.29581 9.42383C9.11954 9.42383 8.96105 9.39213 8.82034 9.32874C8.67964 9.26379 8.55903 9.17411 8.45853 9.05969C8.35957 8.94373 8.2838 8.80843 8.23123 8.65381C8.17866 8.49919 8.15237 8.33142 8.15237 8.15051ZM8.58145 8.09717V8.15051C8.58145 8.27576 8.59614 8.39404 8.62552 8.50537C8.6549 8.61515 8.69896 8.71257 8.75772 8.79761C8.81802 8.88265 8.89301 8.94991 8.9827 8.99939C9.07238 9.04732 9.17675 9.07129 9.29581 9.07129C9.41332 9.07129 9.51614 9.04732 9.60428 8.99939C9.69396 8.94991 9.76818 8.88265 9.82693 8.79761C9.88569 8.71257 9.92976 8.61515 9.95914 8.50537C9.99006 8.39404 10.0055 8.27576 10.0055 8.15051V8.09717C10.0055 7.97347 9.99006 7.85673 9.95914 7.74695C9.92976 7.63562 9.88492 7.53743 9.82461 7.45239C9.76586 7.3658 9.69164 7.29777 9.60196 7.24829C9.51382 7.19881 9.41023 7.17407 9.29117 7.17407C9.17365 7.17407 9.07006 7.19881 8.98038 7.24829C8.89224 7.29777 8.81802 7.3658 8.75772 7.45239C8.69896 7.53743 8.6549 7.63562 8.62552 7.74695C8.59614 7.85673 8.58145 7.97347 8.58145 8.09717ZM11.4968 7.36658V9.37744H11.0654V6.86792H11.4736L11.4968 7.36658ZM11.4086 8.02759L11.2092 8.02063C11.2107 7.849 11.2331 7.69051 11.2764 7.54517C11.3197 7.39827 11.3839 7.27071 11.4689 7.16248C11.554 7.05424 11.6599 6.97074 11.7867 6.91199C11.9135 6.85168 12.0604 6.82153 12.2274 6.82153C12.3449 6.82153 12.4531 6.83854 12.5521 6.87256C12.651 6.90503 12.7368 6.95683 12.8095 7.02795C12.8822 7.09908 12.9386 7.19031 12.9788 7.30164C13.019 7.41296 13.0391 7.54749 13.0391 7.7052V9.37744H12.61V7.72607C12.61 7.59465 12.5876 7.4895 12.5428 7.41064C12.4995 7.33179 12.4376 7.27458 12.3572 7.23901C12.2768 7.2019 12.1825 7.18335 12.0743 7.18335C11.9475 7.18335 11.8416 7.20577 11.7565 7.25061C11.6715 7.29545 11.6035 7.3573 11.5524 7.43616C11.5014 7.51501 11.4643 7.60547 11.4411 7.70752C11.4195 7.80802 11.4086 7.91471 11.4086 8.02759ZM13.0345 7.79102L12.7469 7.87915C12.7484 7.74154 12.7709 7.60933 12.8141 7.48254C12.859 7.35575 12.9232 7.24288 13.0067 7.14392C13.0917 7.04496 13.1961 6.96688 13.3198 6.90967C13.4435 6.85091 13.5849 6.82153 13.7442 6.82153C13.8787 6.82153 13.9978 6.83931 14.1014 6.87488C14.2065 6.91044 14.2947 6.96533 14.3658 7.03955C14.4385 7.11222 14.4933 7.20577 14.5305 7.32019C14.5676 7.43461 14.5861 7.57068 14.5861 7.72839V9.37744H14.1547V7.72375C14.1547 7.58305 14.1323 7.47404 14.0875 7.39673C14.0442 7.31787 13.9823 7.26298 13.9019 7.23206C13.8231 7.19958 13.7287 7.18335 13.619 7.18335C13.5246 7.18335 13.4411 7.19958 13.3685 7.23206C13.2958 7.26453 13.2347 7.30937 13.1852 7.36658C13.1358 7.42224 13.0979 7.48641 13.0716 7.55908C13.0469 7.63175 13.0345 7.70907 13.0345 7.79102ZM15.7967 6.86792V9.37744H15.3653V6.86792H15.7967ZM15.3329 6.20227C15.3329 6.13269 15.3537 6.07393 15.3955 6.026C15.4388 5.97807 15.5022 5.9541 15.5857 5.9541C15.6676 5.9541 15.7302 5.97807 15.7735 6.026C15.8184 6.07393 15.8408 6.13269 15.8408 6.20227C15.8408 6.26876 15.8184 6.32597 15.7735 6.3739C15.7302 6.42029 15.6676 6.44348 15.5857 6.44348C15.5022 6.44348 15.4388 6.42029 15.3955 6.3739C15.3537 6.32597 15.3329 6.26876 15.3329 6.20227ZM17.0096 7.40369V9.37744H16.5806V6.86792H16.9864L17.0096 7.40369ZM16.9076 8.02759L16.729 8.02063C16.7305 7.849 16.7561 7.69051 16.8055 7.54517C16.855 7.39827 16.9246 7.27071 17.0143 7.16248C17.104 7.05424 17.2106 6.97074 17.3343 6.91199C17.4596 6.85168 17.598 6.82153 17.7495 6.82153C17.8732 6.82153 17.9845 6.83854 18.0835 6.87256C18.1824 6.90503 18.2667 6.9576 18.3363 7.03027C18.4074 7.10295 18.4615 7.19727 18.4987 7.31323C18.5358 7.42765 18.5543 7.56759 18.5543 7.73303V9.37744H18.1229V7.72839C18.1229 7.59696 18.1036 7.49182 18.0649 7.41296C18.0263 7.33256 17.9698 7.27458 17.8956 7.23901C17.8214 7.2019 17.7302 7.18335 17.6219 7.18335C17.5153 7.18335 17.4178 7.20577 17.3297 7.25061C17.2431 7.29545 17.1681 7.3573 17.1047 7.43616C17.0429 7.51501 16.9942 7.60547 16.9586 7.70752C16.9246 7.80802 16.9076 7.91471 16.9076 8.02759ZM20.9269 6.86792H21.3166V9.3241C21.3166 9.54521 21.2717 9.73385 21.182 9.89001C21.0924 10.0462 20.9671 10.1645 20.8063 10.2449C20.647 10.3268 20.463 10.3678 20.2543 10.3678C20.1677 10.3678 20.0657 10.3539 19.9481 10.326C19.8322 10.2998 19.7178 10.2542 19.6049 10.1892C19.4936 10.1258 19.4 10.04 19.3242 9.93176L19.5492 9.67664C19.6544 9.80343 19.7641 9.89156 19.8786 9.94104C19.9945 9.99052 20.109 10.0153 20.2218 10.0153C20.3579 10.0153 20.4754 9.98975 20.5744 9.93872C20.6733 9.8877 20.7499 9.81193 20.804 9.71143C20.8596 9.61247 20.8875 9.49032 20.8875 9.34497V7.41992L20.9269 6.86792ZM19.199 8.15051V8.10181C19.199 7.91007 19.2214 7.73612 19.2663 7.57996C19.3126 7.42224 19.3784 7.28695 19.4634 7.17407C19.55 7.0612 19.6544 6.97461 19.7765 6.91431C19.8987 6.85246 20.0363 6.82153 20.1894 6.82153C20.3471 6.82153 20.4847 6.84937 20.6022 6.90503C20.7213 6.95915 20.8218 7.03878 20.9037 7.14392C20.9872 7.24752 21.0529 7.37276 21.1009 7.51965C21.1488 7.66654 21.182 7.83276 21.2006 8.01831V8.23169C21.1836 8.41569 21.1503 8.58114 21.1009 8.72803C21.0529 8.87492 20.9872 9.00016 20.9037 9.10376C20.8218 9.20736 20.7213 9.28699 20.6022 9.34265C20.4831 9.39677 20.344 9.42383 20.1847 9.42383C20.0347 9.42383 19.8987 9.39213 19.7765 9.32874C19.6559 9.26534 19.5523 9.17643 19.4657 9.06201C19.3791 8.94759 19.3126 8.81307 19.2663 8.65845C19.2214 8.50228 19.199 8.33297 19.199 8.15051ZM19.6281 8.10181V8.15051C19.6281 8.27576 19.6404 8.39327 19.6652 8.50305C19.6915 8.61283 19.7309 8.70947 19.7835 8.79297C19.8376 8.87646 19.9064 8.94218 19.9899 8.99011C20.0734 9.0365 20.1731 9.05969 20.2891 9.05969C20.4313 9.05969 20.5489 9.02954 20.6416 8.96924C20.7344 8.90894 20.8078 8.82931 20.862 8.73035C20.9176 8.63139 20.9609 8.52393 20.9918 8.40796V7.849C20.9748 7.76396 20.9486 7.68201 20.913 7.60315C20.879 7.52275 20.8341 7.45162 20.7785 7.38977C20.7243 7.32638 20.6571 7.27612 20.5767 7.23901C20.4963 7.2019 20.402 7.18335 20.2937 7.18335C20.1762 7.18335 20.0749 7.20809 19.9899 7.25757C19.9064 7.3055 19.8376 7.37199 19.7835 7.45703C19.7309 7.54053 19.6915 7.63794 19.6652 7.74927C19.6404 7.85905 19.6281 7.97656 19.6281 8.10181ZM25.2013 8.52393C25.2013 8.44507 25.1889 8.37549 25.1641 8.31519C25.141 8.25334 25.0992 8.19767 25.0389 8.14819C24.9801 8.09871 24.8982 8.05155 24.7931 8.00671C24.6895 7.96187 24.558 7.91626 24.3988 7.86987C24.2318 7.82039 24.081 7.7655 23.9465 7.7052C23.812 7.64335 23.6968 7.573 23.6009 7.49414C23.505 7.41528 23.4316 7.32483 23.3806 7.22278C23.3296 7.12073 23.304 7.00399 23.304 6.87256C23.304 6.74113 23.3311 6.61975 23.3852 6.50842C23.4393 6.39709 23.5166 6.30046 23.6171 6.21851C23.7192 6.13501 23.8406 6.07007 23.9813 6.02368C24.122 5.97729 24.2789 5.9541 24.4521 5.9541C24.7057 5.9541 24.9206 6.00281 25.0969 6.10022C25.2747 6.19609 25.41 6.3221 25.5028 6.47827C25.5955 6.63289 25.6419 6.79834 25.6419 6.97461H25.1966C25.1966 6.84782 25.1696 6.73572 25.1154 6.63831C25.0613 6.53935 24.9794 6.46204 24.8696 6.40637C24.7598 6.34916 24.6206 6.32056 24.4521 6.32056C24.2928 6.32056 24.1614 6.34452 24.0578 6.39246C23.9542 6.44039 23.8769 6.50533 23.8259 6.58728C23.7764 6.66923 23.7517 6.76278 23.7517 6.86792C23.7517 6.93905 23.7664 7.00399 23.7957 7.06274C23.8267 7.11995 23.8738 7.1733 23.9372 7.22278C24.0022 7.27226 24.0841 7.31787 24.1831 7.35962C24.2836 7.40137 24.4034 7.44157 24.5426 7.48022C24.7343 7.53434 24.8997 7.59465 25.0389 7.66113C25.1781 7.72762 25.2925 7.80261 25.3822 7.88611C25.4734 7.96806 25.5407 8.0616 25.5839 8.16675C25.6288 8.27035 25.6512 8.38786 25.6512 8.51929C25.6512 8.6569 25.6234 8.78137 25.5677 8.8927C25.512 9.00403 25.4324 9.09912 25.3288 9.17798C25.2252 9.25684 25.1008 9.31791 24.9554 9.36121C24.8116 9.40295 24.6508 9.42383 24.473 9.42383C24.3168 9.42383 24.163 9.40218 24.0114 9.35889C23.8615 9.31559 23.7246 9.25065 23.6009 9.16406C23.4788 9.07747 23.3806 8.97078 23.3064 8.84399C23.2337 8.71566 23.1973 8.56722 23.1973 8.39868H23.6427C23.6427 8.51465 23.6651 8.61438 23.7099 8.69788C23.7548 8.77983 23.8158 8.84786 23.8932 8.90198C23.972 8.9561 24.0609 8.9963 24.1599 9.02258C24.2604 9.04732 24.3647 9.05969 24.473 9.05969C24.6292 9.05969 24.7614 9.03805 24.8696 8.99475C24.9778 8.95146 25.0598 8.88961 25.1154 8.8092C25.1727 8.7288 25.2013 8.63371 25.2013 8.52393ZM26.1382 8.15051V8.09717C26.1382 7.91626 26.1645 7.74849 26.217 7.59387C26.2696 7.4377 26.3454 7.30241 26.4443 7.18799C26.5433 7.07202 26.6631 6.98234 26.8038 6.91895C26.9445 6.854 27.1022 6.82153 27.277 6.82153C27.4532 6.82153 27.6117 6.854 27.7524 6.91895C27.8947 6.98234 28.0153 7.07202 28.1142 7.18799C28.2148 7.30241 28.2913 7.4377 28.3439 7.59387C28.3964 7.74849 28.4227 7.91626 28.4227 8.09717V8.15051C28.4227 8.33142 28.3964 8.49919 28.3439 8.65381C28.2913 8.80843 28.2148 8.94373 28.1142 9.05969C28.0153 9.17411 27.8955 9.26379 27.7548 9.32874C27.6156 9.39213 27.4579 9.42383 27.2816 9.42383C27.1053 9.42383 26.9468 9.39213 26.8061 9.32874C26.6654 9.26379 26.5448 9.17411 26.4443 9.05969C26.3454 8.94373 26.2696 8.80843 26.217 8.65381C26.1645 8.49919 26.1382 8.33142 26.1382 8.15051ZM26.5673 8.09717V8.15051C26.5673 8.27576 26.5819 8.39404 26.6113 8.50537C26.6407 8.61515 26.6848 8.71257 26.7435 8.79761C26.8038 8.88265 26.8788 8.94991 26.9685 8.99939C27.0582 9.04732 27.1625 9.07129 27.2816 9.07129C27.3991 9.07129 27.5019 9.04732 27.5901 8.99939C27.6798 8.94991 27.754 8.88265 27.8127 8.79761C27.8715 8.71257 27.9156 8.61515 27.9449 8.50537C27.9759 8.39404 27.9913 8.27576 27.9913 8.15051V8.09717C27.9913 7.97347 27.9759 7.85673 27.9449 7.74695C27.9156 7.63562 27.8707 7.53743 27.8104 7.45239C27.7517 7.3658 27.6774 7.29777 27.5878 7.24829C27.4996 7.19881 27.396 7.17407 27.277 7.17407C27.1595 7.17407 27.0559 7.19881 26.9662 7.24829C26.878 7.29777 26.8038 7.3658 26.7435 7.45239C26.6848 7.53743 26.6407 7.63562 26.6113 7.74695C26.5819 7.85673 26.5673 7.97347 26.5673 8.09717ZM28.9422 8.15051V8.09717C28.9422 7.91626 28.9684 7.74849 29.021 7.59387C29.0736 7.4377 29.1494 7.30241 29.2483 7.18799C29.3473 7.07202 29.4671 6.98234 29.6078 6.91895C29.7485 6.854 29.9062 6.82153 30.081 6.82153C30.2572 6.82153 30.4157 6.854 30.5564 6.91895C30.6987 6.98234 30.8193 7.07202 30.9182 7.18799C31.0187 7.30241 31.0953 7.4377 31.1478 7.59387C31.2004 7.74849 31.2267 7.91626 31.2267 8.09717V8.15051C31.2267 8.33142 31.2004 8.49919 31.1478 8.65381C31.0953 8.80843 31.0187 8.94373 30.9182 9.05969C30.8193 9.17411 30.6994 9.26379 30.5587 9.32874C30.4196 9.39213 30.2619 9.42383 30.0856 9.42383C29.9093 9.42383 29.7508 9.39213 29.6101 9.32874C29.4694 9.26379 29.3488 9.17411 29.2483 9.05969C29.1494 8.94373 29.0736 8.80843 29.021 8.65381C28.9684 8.49919 28.9422 8.33142 28.9422 8.15051ZM29.3712 8.09717V8.15051C29.3712 8.27576 29.3859 8.39404 29.4153 8.50537C29.4447 8.61515 29.4887 8.71257 29.5475 8.79761C29.6078 8.88265 29.6828 8.94991 29.7725 8.99939C29.8622 9.04732 29.9665 9.07129 30.0856 9.07129C30.2031 9.07129 30.3059 9.04732 30.3941 8.99939C30.4837 8.94991 30.558 8.88265 30.6167 8.79761C30.6755 8.71257 30.7195 8.61515 30.7489 8.50537C30.7798 8.39404 30.7953 8.27576 30.7953 8.15051V8.09717C30.7953 7.97347 30.7798 7.85673 30.7489 7.74695C30.7195 7.63562 30.6747 7.53743 30.6144 7.45239C30.5556 7.3658 30.4814 7.29777 30.3917 7.24829C30.3036 7.19881 30.2 7.17407 30.081 7.17407C29.9634 7.17407 29.8598 7.19881 29.7702 7.24829C29.682 7.29777 29.6078 7.3658 29.5475 7.45239C29.4887 7.53743 29.4447 7.63562 29.4153 7.74695C29.3859 7.85673 29.3712 7.97347 29.3712 8.09717ZM32.2889 7.40369V9.37744H31.8598V6.86792H32.2657L32.2889 7.40369ZM32.1868 8.02759L32.0082 8.02063C32.0098 7.849 32.0353 7.69051 32.0848 7.54517C32.1342 7.39827 32.2038 7.27071 32.2935 7.16248C32.3832 7.05424 32.4899 6.97074 32.6136 6.91199C32.7388 6.85168 32.8772 6.82153 33.0287 6.82153C33.1524 6.82153 33.2638 6.83854 33.3627 6.87256C33.4617 6.90503 33.5459 6.9576 33.6155 7.03027C33.6867 7.10295 33.7408 7.19727 33.7779 7.31323C33.815 7.42765 33.8335 7.56759 33.8335 7.73303V9.37744H33.4021V7.72839C33.4021 7.59696 33.3828 7.49182 33.3442 7.41296C33.3055 7.33256 33.2491 7.27458 33.1749 7.23901C33.1006 7.2019 33.0094 7.18335 32.9012 7.18335C32.7945 7.18335 32.6971 7.20577 32.6089 7.25061C32.5223 7.29545 32.4474 7.3573 32.384 7.43616C32.3221 7.51501 32.2734 7.60547 32.2378 7.70752C32.2038 7.80802 32.1868 7.91471 32.1868 8.02759Z" fill="white"/>
</svg>
