<svg width="53" height="56" viewBox="0 0 53 56" fill="none" xmlns="http://www.w3.org/2000/svg">
<path fill-rule="evenodd" clip-rule="evenodd" d="M5.27254 4.83886C10.1987 4.28154 15.7415 6.45028 19.7295 11.0022C23.7175 15.5542 25.1385 21.3341 23.9382 26.1441C19.0121 26.7014 13.4693 24.5327 9.48127 19.9807C5.49328 15.4288 4.07226 9.64891 5.27254 4.83886Z" fill="#3DC5A1"/>
<path fill-rule="evenodd" clip-rule="evenodd" d="M28.3587 30.1674C27.1584 34.9775 28.5794 40.7574 32.5674 45.3093C36.5554 49.8612 42.0982 52.03 47.0243 51.4727C48.2246 46.6626 46.8036 40.8827 42.8156 36.3308C38.8276 31.7788 33.2848 29.6101 28.3587 30.1674Z" fill="#3DC5A1"/>
<path fill-rule="evenodd" clip-rule="evenodd" d="M47.0243 4.83886C42.0982 4.28154 36.5554 6.45028 32.5674 11.0022C28.5794 15.5542 27.1584 21.3341 28.3587 26.1441C33.2848 26.7014 38.8276 24.5327 42.8156 19.9807C46.8036 15.4288 48.2246 9.64891 47.0243 4.83886Z" fill="#521282"/>
<path fill-rule="evenodd" clip-rule="evenodd" d="M5.27254 51.4727C10.1987 52.03 15.7415 49.8612 19.7295 45.3093C23.7175 40.7574 25.1385 34.9775 23.9382 30.1674C19.0121 29.6101 13.4693 31.7788 9.48127 36.3308C5.49328 40.8827 4.07226 46.6626 5.27254 51.4727Z" fill="#521282"/>
</svg>
